<svg width="60" height="60" viewBox="0 0 60 60" fill="none" xmlns="http://www.w3.org/2000/svg">
<g clip-path="url(#clip0_362_2148)">
<path d="M19.6875 54.375H18.75V23.4375C18.75 22.6916 18.4537 21.9762 17.9262 21.4488C17.3988 20.9213 16.6834 20.625 15.9375 20.625H6.5625C5.81658 20.625 5.10121 20.9213 4.57376 21.4488C4.04632 21.9762 3.75 22.6916 3.75 23.4375V54.375H2.8125C2.56386 54.375 2.3254 54.4738 2.14959 54.6496C1.97377 54.8254 1.875 55.0639 1.875 55.3125V59.0625C1.875 59.3111 1.97377 59.5496 2.14959 59.7254C2.3254 59.9012 2.56386 60 2.8125 60H19.6875C19.9361 60 20.1746 59.9012 20.3504 59.7254C20.5262 59.5496 20.625 59.3111 20.625 59.0625V55.3125C20.625 55.0639 20.5262 54.8254 20.3504 54.6496C20.1746 54.4738 19.9361 54.375 19.6875 54.375ZM6.5625 22.5H15.9375C16.1861 22.5 16.4246 22.5988 16.6004 22.7746C16.7762 22.9504 16.875 23.1889 16.875 23.4375V45H5.625V23.4375C5.625 23.1889 5.72377 22.9504 5.89959 22.7746C6.0754 22.5988 6.31386 22.5 6.5625 22.5ZM5.625 46.875H16.875V54.375H5.625V46.875ZM18.75 58.125H3.75V56.25H18.75V58.125Z" fill="white"/>
<path d="M36.5625 18.6636C36.5541 17.4017 36.3544 5.02668 31.5994 0.273551C31.4236 0.0983699 31.1856 0 30.9375 0C30.6894 0 30.4514 0.0983699 30.2756 0.273551C25.5206 5.02668 25.3209 17.4017 25.3125 18.6636L23.4375 28.9807V51.5623C23.4374 51.7077 23.4711 51.8512 23.5359 51.9814L24.7331 54.3748H24.375C24.1264 54.3748 23.8879 54.4736 23.7121 54.6494C23.5363 54.8252 23.4375 55.0637 23.4375 55.3123V59.0623C23.4375 59.3109 23.5363 59.5494 23.7121 59.7252C23.8879 59.901 24.1264 59.9998 24.375 59.9998H37.5C37.7486 59.9998 37.9871 59.901 38.1629 59.7252C38.3387 59.5494 38.4375 59.3109 38.4375 59.0623V55.3123C38.4375 55.0637 38.3387 54.8252 38.1629 54.6494C37.9871 54.4736 37.7486 54.3748 37.5 54.3748H37.1419L38.3381 51.9814C38.4038 51.8514 38.4378 51.7079 38.4375 51.5623V28.9807L36.5625 18.6636ZM25.3125 50.6248V29.9998H36.5625V50.6248H25.3125ZM25.5 28.1248L27.0338 19.6873H34.845L36.375 28.1248H25.5ZM30.9375 2.36699C34.0153 6.4498 34.5666 14.9829 34.6659 17.8123H27.2091C27.3084 14.9829 27.8597 6.4498 30.9375 2.36699ZM36.5625 58.1248H25.3125V56.2498H36.5625V58.1248ZM26.8294 54.3748L25.8919 52.4998H35.9831L35.0456 54.3748H26.8294Z" fill="white"/>
<path d="M57.1876 51.5625V35.625C57.1876 35.0513 57.1022 21.5625 49.6876 21.5625C42.2729 21.5625 42.1876 35.0513 42.1876 35.625V51.5625C42.186 51.7076 42.2181 51.851 42.2813 51.9816L43.4832 54.375H43.1251C42.8764 54.375 42.638 54.4738 42.4621 54.6496C42.2863 54.8254 42.1876 55.0639 42.1876 55.3125V59.0625C42.1876 59.3111 42.2863 59.5496 42.4621 59.7254C42.638 59.9012 42.8764 60 43.1251 60H56.2501C56.4987 60 56.7372 59.9012 56.913 59.7254C57.0888 59.5496 57.1876 59.3111 57.1876 59.0625V55.3125C57.1876 55.0639 57.0888 54.8254 56.913 54.6496C56.7372 54.4738 56.4987 54.375 56.2501 54.375H55.8919L57.0882 51.9816C57.1537 51.8516 57.1877 51.708 57.1876 51.5625ZM49.6876 23.4375C54.2466 23.4375 55.1129 31.8356 55.2751 34.6875H44.1001C44.2622 31.8356 45.1285 23.4375 49.6876 23.4375ZM44.0626 50.625V36.5625H55.3126V50.625H44.0626ZM55.3126 58.125H44.0626V56.25H55.3126V58.125ZM45.5794 54.375L44.6419 52.5H54.7332L53.7957 54.375H45.5794Z" fill="white"/>
</g>
<defs>
<clipPath id="clip0_362_2148">
<rect width="60" height="60" fill="white"/>
</clipPath>
</defs>
</svg>
