<svg width="60" height="60" viewBox="0 0 60 60" fill="none" xmlns="http://www.w3.org/2000/svg">
<g clip-path="url(#clip0_362_2137)">
<path d="M50.6753 38.3246C52.1291 38.3246 53.3119 37.1418 53.3119 35.6881V28.0714C53.3119 25.923 51.5831 24.311 50.5526 23.5414C49.935 23.08 49.0723 23.0799 48.4545 23.5414C47.4241 24.3111 45.6952 25.9232 45.6952 28.0714V35.6881C45.6952 37.1418 46.878 38.3246 48.3317 38.3246H50.6753ZM47.4529 28.0714C47.4529 26.6403 48.8846 25.4145 49.5036 24.9516C50.1225 25.4144 51.5542 26.6403 51.5542 28.0714V33.0515H47.4529V28.0714ZM47.4529 35.6881V34.8092H51.5542V35.6881C51.5542 36.1727 51.16 36.5669 50.6753 36.5669H48.3317C47.8471 36.5669 47.4529 36.1727 47.4529 35.6881Z" fill="white"/>
<path d="M29.9236 44.569C28.4046 43.0502 26.0425 43.1325 24.7692 43.3168C24.7691 43.3168 24.7689 43.3169 24.7688 43.3169C24.006 43.4275 23.3961 44.0375 23.2856 44.8004C23.1011 46.0732 23.0185 48.4355 24.5377 49.9549L29.9236 55.3407C30.4375 55.8546 31.1126 56.1115 31.7878 56.1115C32.463 56.1115 33.1382 55.8545 33.6522 55.3406L35.3093 53.6834C35.8073 53.1855 36.0816 52.5234 36.0816 51.8191C36.0816 51.1147 35.8073 50.4526 35.3094 49.9547L29.9236 44.569ZM29.302 52.2335L25.7806 48.7122C24.7685 47.7 24.9141 45.8209 25.0246 45.0559C25.7895 44.9457 27.6686 44.8 28.6806 45.8121L32.202 49.3335L29.302 52.2335ZM34.0663 52.4407L32.4093 54.0979C32.0664 54.4405 31.5088 54.4405 31.1665 54.0979L30.545 53.4765L33.445 50.5765L34.0665 51.1979C34.2324 51.3638 34.3238 51.5846 34.3238 51.8193C34.3238 52.054 34.2324 52.2747 34.0663 52.4407Z" fill="white"/>
<path d="M45.3645 45.0947C45.1835 44.6441 44.6713 44.4261 44.2212 44.607C43.7709 44.7879 43.5525 45.2998 43.7335 45.7502L44.0485 46.534C44.583 47.8642 43.7081 49.5384 43.3124 50.1944C42.5676 49.9967 40.7775 49.3933 40.243 48.0631L38.3862 43.4422L42.1917 41.913L42.5189 42.7272C42.6998 43.1779 43.2121 43.3956 43.6619 43.215C44.1124 43.0341 44.3308 42.5222 44.1498 42.0719L42.8396 38.8113C42.5771 38.1578 42.0756 37.6457 41.4278 37.3692C40.78 37.0928 40.0635 37.0852 39.41 37.3478L37.2353 38.2216C35.8864 38.7637 35.23 40.3022 35.7721 41.6511L38.612 48.7185C39.4131 50.7121 41.6182 51.5631 42.8615 51.8931C43.0084 51.9321 43.1574 51.9509 43.3053 51.9509C43.9067 51.9509 44.4862 51.6393 44.8082 51.1108C45.4774 50.0125 46.4805 47.8721 45.6794 45.8785L45.3645 45.0947ZM37.403 40.9959C37.2223 40.5462 37.4411 40.0335 37.8908 39.8528L40.0655 38.979C40.2832 38.8916 40.5221 38.894 40.7381 38.9861C40.954 39.0782 41.1211 39.2489 41.2087 39.4668L41.5363 40.2822L37.7308 41.8114L37.403 40.9959Z" fill="white"/>
<path d="M56.4582 43.4664L54.3278 42.4898C53.0066 41.8839 51.4383 42.4661 50.8324 43.7878L47.6583 50.7116C46.7631 52.6646 47.6629 54.8503 48.2789 55.9794C48.5889 56.5477 49.1915 56.8923 49.8229 56.8923C49.9435 56.8923 50.0652 56.8798 50.1861 56.8538C51.4435 56.5836 53.6869 55.8388 54.5823 53.8855L57.7564 46.9618C58.3621 45.6404 57.7799 44.0723 56.4582 43.4664ZM52.9846 53.1531C52.388 54.4543 50.5759 54.9719 49.8202 55.1345C49.4505 54.4559 48.6599 52.745 49.2563 51.444L51.3316 46.9168L55.0599 48.626L52.9846 53.1531ZM56.1586 46.2293L55.7923 47.0283L52.064 45.3191L52.4302 44.5202C52.578 44.1979 52.8973 44.0075 53.2305 44.0075C53.3529 44.0075 53.4771 44.0332 53.5954 44.0874L55.7258 45.064C56.1663 45.2661 56.3604 45.7889 56.1586 46.2293Z" fill="white"/>
<path d="M34.1322 15.5764C34.0068 15.1222 33.712 14.7439 33.3021 14.5115C32.8922 14.2792 32.4162 14.2202 31.9622 14.3457L20.8801 17.4079C19.9426 17.667 19.3907 18.6404 19.6497 19.5777L21.5465 26.4424C21.672 26.8965 21.9668 27.2745 22.3766 27.5069C22.6455 27.6595 22.9429 27.7372 23.2438 27.7372C23.4016 27.7372 23.5602 27.7158 23.7164 27.6727L34.7985 24.6107C34.7986 24.6107 34.7986 24.6106 34.7986 24.6106C35.736 24.3515 36.2879 23.3779 36.0288 22.4407L34.1322 15.5764ZM34.3306 22.9163L23.2408 25.9742L21.3484 19.1021L32.438 16.0443L33.1509 18.6298L29.2946 19.6953C28.8269 19.8247 28.5524 20.3087 28.6817 20.7766C28.7892 21.1661 29.1429 21.4216 29.5283 21.4216C29.6058 21.4216 33.6182 20.3245 33.6182 20.3245L34.3327 22.9158C34.3324 22.9156 34.332 22.9159 34.3306 22.9163Z" fill="white"/>
<path d="M59.9044 9.41737L57.9929 2.49932C57.8045 1.81733 57.3616 1.24948 56.7461 0.900517C56.1305 0.551555 55.416 0.463085 54.7342 0.65151L51.6004 1.51735C50.7638 1.74855 50.0932 2.37534 49.8061 3.19431L48.8276 5.98553L11.7191 16.2389C11.335 16.345 11.0704 16.6963 11.0744 17.0949C11.076 17.2534 11.0738 17.4093 11.0698 17.5639C9.20148 17.8046 5.87463 18.0009 3.56994 16.8255C2.728 16.3962 1.70022 16.7089 1.23033 17.5376L0.230785 19.3004C-0.194108 20.0499 -0.0193935 20.9891 0.64607 21.5338C1.83896 22.51 4.6849 23.8686 7.76321 24.332C7.15763 24.7649 6.47025 25.1371 5.70015 25.447C4.44562 25.9518 3.76914 27.3078 4.12666 28.6012L5.17729 32.4038C5.87627 34.9337 5.54828 37.5843 4.25368 39.8675L3.82867 40.6172C2.30241 43.3088 1.91571 46.4335 2.73984 49.4158L4.97387 57.5013C5.29787 58.674 6.3662 59.445 7.5278 59.4449C7.76064 59.4449 7.99734 59.4139 8.23252 59.3491L18.2965 56.5684C18.9785 56.38 19.5462 55.9371 19.8952 55.3217C20.2443 54.7062 20.3326 53.9916 20.1442 53.3097L17.1991 42.6511C17.0078 41.9586 17.0976 41.2331 17.4519 40.6082L18.2688 39.1673L18.6001 39.4389C19.3988 40.094 20.3937 40.4406 21.4043 40.4406C21.797 40.4406 22.1921 40.3883 22.5789 40.2815L30.8661 37.9916C34.1554 37.0828 36.092 33.6675 35.1833 30.3781L34.6262 28.3621L36.628 27.8091C38.9764 27.16 40.3591 24.7213 39.7103 22.3729L39.4694 21.5009L48.978 18.8737C50.1158 18.5591 51.0631 17.8207 51.6451 16.794L53.2315 13.9965L58.0652 12.6609C59.4664 12.2737 60.2915 10.8187 59.9044 9.41737ZM1.75986 20.1674L2.75941 18.4046C2.76468 18.3953 2.77276 18.3931 2.77276 18.3921C5.28627 19.6733 8.59261 19.6188 10.8835 19.3583C10.6367 20.6513 10.1509 21.7758 9.42764 22.7278C6.34686 22.6061 2.98439 21.1758 1.75986 20.1674ZM58.1275 10.5531C58.0118 10.7572 57.8233 10.9041 57.5972 10.9666L47.5422 13.7448C47.0743 13.8742 46.7999 14.3581 46.9291 14.826C47.0585 15.2938 47.5424 15.5681 48.0103 15.4391L50.8354 14.6586L50.1161 15.9271C49.7656 16.5453 49.1953 16.9901 48.51 17.1795L39.0013 19.8069L38.5191 18.0617L44.0617 16.5302C44.5296 16.4008 44.8041 15.9169 44.6748 15.449C44.5455 14.9809 44.0614 14.7066 43.5936 14.8359L37.2039 16.6014C36.736 16.7308 36.4616 17.2147 36.5908 17.6826L38.0161 22.841C38.4069 24.2554 37.5742 25.7241 36.16 26.1148L33.3111 26.9019C33.0863 26.964 32.8956 27.1128 32.7806 27.3155C32.6658 27.5182 32.636 27.7583 32.698 27.983L33.4891 30.8461C34.1399 33.2013 32.7533 35.6466 30.3982 36.2973L22.1108 38.5872C21.2781 38.8174 20.3825 38.6276 19.7147 38.0799L13.115 32.6677C12.7397 32.36 12.186 32.4147 11.8782 32.79C11.5705 33.1654 11.6252 33.7192 12.0004 34.027L16.8896 38.0363L15.9229 39.7411C15.337 40.7744 15.1885 41.9741 15.5049 43.119L18.45 53.7777C18.5134 54.0072 18.4836 54.2475 18.3662 54.4545C18.2488 54.6616 18.0578 54.8105 17.8284 54.8738L7.76439 57.6545C7.29086 57.7852 6.79894 57.5065 6.66817 57.033L4.43402 48.9477C3.73504 46.4179 4.06291 43.7673 5.35763 41.4842L5.78264 40.7345C7.30879 38.0429 7.69548 34.9181 6.87148 31.9358L6.11602 29.2016L9.29112 31.8054C9.45459 31.9394 9.6518 32.0046 9.84784 32.0046C10.102 32.0046 10.3542 31.8948 10.528 31.683C10.8357 31.3077 10.7809 30.7539 10.4057 30.4461L6.31897 27.0946C6.3314 27.089 6.34347 27.0827 6.35635 27.0775C10.4368 25.436 12.6621 22.2214 12.8234 17.7574L34.9241 11.6508L35.5239 13.8219C35.6533 14.2898 36.1371 14.564 36.6051 14.435C37.073 14.3056 37.3475 13.8217 37.2182 13.3538L36.6183 11.1826L49.7387 7.55726C50.026 7.47793 50.2397 7.26466 50.3325 7.00382C50.3328 7.00277 50.3337 7.00195 50.334 7.00089L50.3373 6.9914C50.3377 6.99046 50.338 6.98953 50.3382 6.98859L51.4648 3.77564C51.5614 3.50003 51.7869 3.28923 52.0683 3.21154L55.2023 2.34569C55.4316 2.28207 55.672 2.31183 55.879 2.42948C56.0861 2.54677 56.235 2.73789 56.2984 2.96722L56.5433 3.85356L53.4958 4.6955C53.0279 4.82487 52.7534 5.30882 52.8827 5.77672C53.012 6.2445 53.4961 6.51893 53.9639 6.3898L57.0115 5.54775L58.21 9.88527C58.2727 10.1118 58.2433 10.3488 58.1275 10.5531Z" fill="white"/>
<path d="M31.4083 30.123C31.2207 29.4442 30.7801 28.879 30.1674 28.5316C29.5546 28.1841 28.8435 28.0965 28.1648 28.2839L21.7744 30.0495C20.3731 30.4367 19.5481 31.8917 19.9352 33.293L20.2647 34.4859C20.4523 35.1648 20.8929 35.7298 21.5056 36.0772C21.9076 36.3052 22.3519 36.4214 22.8018 36.4214C23.0376 36.4214 23.2749 36.3895 23.5082 36.3251L29.8987 34.5594C31.2999 34.1721 32.125 32.7171 31.7378 31.316L31.4083 30.123ZM29.4305 32.8651L23.04 34.6308C22.8137 34.693 22.5768 34.6638 22.3726 34.5482C22.1683 34.4324 22.0215 34.244 21.9589 34.0178L21.6294 32.825C21.5004 32.358 21.7754 31.8728 22.2424 31.7438L28.6329 29.978C28.7107 29.9566 28.7898 29.946 28.8683 29.946C29.0183 29.946 29.1664 29.9847 29.3003 30.0608C29.5046 30.1765 29.6514 30.365 29.714 30.5911L30.0436 31.784C30.1726 32.251 29.8976 32.736 29.4305 32.8651Z" fill="white"/>
</g>
<defs>
<clipPath id="clip0_362_2137">
<rect width="60" height="60" fill="white"/>
</clipPath>
</defs>
</svg>
