<svg width="60" height="60" viewBox="0 0 60 60" fill="none" xmlns="http://www.w3.org/2000/svg">
<path d="M38.7085 27.0977H21.2891V34.8396H38.7084V27.0977H38.7085ZM36.7729 32.9041H23.2246V29.0331H36.773V32.9041H36.7729Z" fill="white"/>
<path d="M52.2563 36.9407V23.3737L51.4476 23.239C48.5518 22.7563 46.4498 20.2751 46.4498 17.3393V12.5807V9.67746V2.9032C46.4499 1.30242 45.1475 0 43.5467 0H39.6757C38.075 0 36.7725 1.30242 36.7725 2.9032V4.21723C35.6225 4.71621 32.7897 5.80641 29.9983 5.80641C27.2166 5.80641 24.3769 4.71527 23.2241 4.21641V2.9032C23.2241 1.30242 21.9216 0 20.3208 0H16.4499C14.8491 0 13.5467 1.30242 13.5467 2.9032V9.67734V12.5805V17.3392C13.5467 20.2751 11.4447 22.7563 8.54887 23.2389L7.74016 23.3736V36.9407C6.61387 37.34 5.80469 38.4157 5.80469 39.6773V41.6128V51.2903C5.80469 52.8698 6.5657 54.2749 7.74016 55.1586V60H52.2563V55.1586C53.4307 54.2749 54.1918 52.87 54.1918 51.2903V41.6128V39.6773C54.1919 38.4158 53.3827 37.3402 52.2563 36.9407ZM52.2563 41.6129C52.2563 43.2137 50.9539 44.5161 49.3531 44.5161H45.4821C43.8814 44.5161 42.5789 43.2137 42.5789 41.6129V39.6775C42.5789 39.1439 43.0131 38.7097 43.5467 38.7097H51.2887C51.8222 38.7097 52.2564 39.1439 52.2564 39.6775V41.6129H52.2563ZM7.74027 51.2903V45.4812C8.54957 46.0901 9.55504 46.4516 10.6435 46.4516H14.5144C15.6029 46.4516 16.6083 46.0902 17.4176 45.4812V51.2903C17.4176 52.8911 16.1152 54.1935 14.5144 54.1935H10.6435C9.04269 54.1936 7.74027 52.8911 7.74027 51.2903ZM42.5789 25.1613V36.9407C42.2185 37.0685 41.8905 37.2655 41.6112 37.5158C41.0971 37.055 40.4187 36.7741 39.6757 36.7741H31.9337C31.1908 36.7741 30.5124 37.055 29.9983 37.5158C29.4842 37.055 28.8058 36.7741 28.0628 36.7741H20.3208C19.5779 36.7741 18.8995 37.055 18.3854 37.5158C18.1061 37.2654 17.7781 37.0685 17.4176 36.9407V25.1613H42.5789ZM40.6435 41.6129C40.6435 43.2137 39.3411 44.5161 37.7403 44.5161H33.8693C32.2686 44.5161 30.9661 43.2137 30.9661 41.6129V39.6775C30.9661 39.1439 31.4003 38.7097 31.9339 38.7097H39.6759C40.2094 38.7097 40.6436 39.1439 40.6436 39.6775V41.6129H40.6435ZM19.3531 39.6775C19.3531 39.1439 19.7873 38.7097 20.3208 38.7097H28.0628C28.5964 38.7097 29.0305 39.1439 29.0305 39.6775V41.6129C29.0305 43.2137 27.7281 44.5161 26.1273 44.5161H22.2564C20.6556 44.5161 19.3532 43.2137 19.3532 41.6129V39.6775H19.3531ZM19.3531 45.4812C20.1624 46.0901 21.1679 46.4516 22.2563 46.4516H26.1272C27.2157 46.4516 28.2211 46.0902 29.0304 45.4812V51.2903C29.0304 52.8911 27.728 54.1935 26.1272 54.1935H22.2563C20.6555 54.1935 19.3531 52.8911 19.3531 51.2903V45.4812ZM30.966 45.4812C31.7753 46.0901 32.7808 46.4516 33.8692 46.4516H37.7402C38.8286 46.4516 39.8341 46.0902 40.6434 45.4812V51.2903C40.6434 52.8911 39.3409 54.1935 37.7402 54.1935H33.8692C32.2684 54.1935 30.966 52.8911 30.966 51.2903V45.4812ZM50.3208 24.9704V36.7743H44.5144V23.2259H30.966V14.8494C32.4059 13.069 34.5099 11.9243 36.7724 11.6681V12.5807C36.7724 14.1814 38.0748 15.4839 39.6756 15.4839H43.5466C43.8857 15.4839 44.2114 15.4248 44.5143 15.3175V17.3393C44.5144 20.9463 46.9111 24.0347 50.3208 24.9704ZM44.5144 12.5807C44.5144 13.1142 44.0802 13.5484 43.5467 13.5484H39.6757C39.1422 13.5484 38.708 13.1142 38.708 12.5807V11.6129H44.5144V12.5807ZM39.6757 1.93547H43.5467C44.0802 1.93547 44.5144 2.36965 44.5144 2.9032V9.67734H38.708V2.9032C38.708 2.36965 39.1421 1.93547 39.6757 1.93547ZM29.9983 7.74199C32.6379 7.74199 35.2354 6.91301 36.7724 6.31195V9.72305C34.1965 9.96141 31.7736 11.1412 29.9983 13.0178C28.223 11.1415 25.7999 9.96141 23.2241 9.72305V6.31184C24.7612 6.91289 27.3586 7.74199 29.9983 7.74199ZM15.4821 2.9032C15.4821 2.36965 15.9163 1.93547 16.4499 1.93547H20.3208C20.8544 1.93547 21.2886 2.36965 21.2886 2.9032V9.67734H15.4821V2.9032ZM21.2886 11.6129V12.5807C21.2886 13.1142 20.8544 13.5484 20.3208 13.5484H16.4499C15.9163 13.5484 15.4821 13.1142 15.4821 12.5807V11.6129H21.2886ZM15.4821 17.3393V15.3175C15.7851 15.4249 16.1107 15.4839 16.4499 15.4839H20.3208C21.9216 15.4839 23.224 14.1814 23.224 12.5807V11.6681C25.4866 11.9243 27.5905 13.0691 29.0304 14.8494V23.2259H15.4821V36.7743H9.67574V24.9704C13.0854 24.0347 15.4821 20.9463 15.4821 17.3393ZM8.70801 38.7097H16.45C16.9836 38.7097 17.4177 39.1439 17.4177 39.6775V41.6129C17.4177 43.2137 16.1153 44.5161 14.5145 44.5161H10.6435C9.04269 44.5161 7.74027 43.2137 7.74027 41.6129V39.6775C7.74027 39.1438 8.17434 38.7097 8.70801 38.7097ZM50.3208 58.0645H9.67574V56.0317C9.98852 56.0954 10.3122 56.1291 10.6435 56.1291H14.5144C16.0956 56.1291 17.5019 55.3666 18.3854 54.1902C19.2689 55.3666 20.6752 56.1291 22.2563 56.1291H26.1272C27.7084 56.1291 29.1147 55.3666 29.9982 54.1902C30.8818 55.3666 32.288 56.1291 33.8691 56.1291H37.74C39.3212 56.1291 40.7275 55.3666 41.611 54.1902C42.4946 55.3666 43.9008 56.1291 45.4819 56.1291H49.3529C49.6841 56.1291 50.0078 56.0954 50.3206 56.0317V58.0645H50.3208ZM49.3531 54.1936H45.4821C43.8814 54.1936 42.5789 52.8912 42.5789 51.2904V45.4813C43.3882 46.0902 44.3937 46.4517 45.4821 46.4517H49.3531C50.4415 46.4517 51.447 46.0903 52.2563 45.4813V51.2904C52.2563 52.8911 50.9539 54.1936 49.3531 54.1936Z" fill="white"/>
<path d="M47.417 42.58C47.9514 42.58 48.3847 42.1467 48.3847 41.6123C48.3847 41.0778 47.9514 40.6445 47.417 40.6445C46.8825 40.6445 46.4492 41.0778 46.4492 41.6123C46.4492 42.1467 46.8825 42.58 47.417 42.58Z" fill="white"/>
<path d="M35.8037 42.58C36.3381 42.58 36.7714 42.1467 36.7714 41.6123C36.7714 41.0778 36.3381 40.6445 35.8037 40.6445C35.2692 40.6445 34.8359 41.0778 34.8359 41.6123C34.8359 42.1467 35.2692 42.58 35.8037 42.58Z" fill="white"/>
<path d="M24.1904 42.58C24.7249 42.58 25.1581 42.1467 25.1581 41.6123C25.1581 41.0778 24.7249 40.6445 24.1904 40.6445C23.6559 40.6445 23.2227 41.0778 23.2227 41.6123C23.2227 42.1467 23.6559 42.58 24.1904 42.58Z" fill="white"/>
<path d="M12.5771 42.58C13.1116 42.58 13.5448 42.1467 13.5448 41.6123C13.5448 41.0778 13.1116 40.6445 12.5771 40.6445C12.0426 40.6445 11.6094 41.0778 11.6094 41.6123C11.6094 42.1467 12.0426 42.58 12.5771 42.58Z" fill="white"/>
</svg>
