<svg width="60" height="60" viewBox="0 0 60 60" fill="none" xmlns="http://www.w3.org/2000/svg">
<path d="M23.6302 35.8852C23.5511 36.3745 23.7526 36.857 24.1562 37.1446C24.5599 37.4322 25.0819 37.4653 25.5185 37.2307L30.0006 34.8232L34.4828 37.2308C34.9185 37.4647 35.4405 37.4329 35.8451 37.1445C36.2487 36.8568 36.4501 36.3743 36.371 35.8852L35.5478 30.793L39.1397 27.3337C39.4932 26.9933 39.623 26.4904 39.4784 26.0213C39.3338 25.5523 38.9434 25.2099 38.4597 25.1277L33.4289 24.2716L31.1516 19.8247C30.9293 19.3906 30.4883 19.1211 30.0007 19.1211C29.5131 19.1211 29.0721 19.3907 28.8497 19.8248L26.5724 24.2717L21.5418 25.1278C21.058 25.21 20.6677 25.5526 20.523 26.0214C20.3783 26.4904 20.5082 26.9933 20.8616 27.3339L24.4535 30.7931L23.6302 35.8852ZM22.7439 26.7062L27.0967 25.9654C27.4967 25.8973 27.8458 25.6412 28.0308 25.28L30.0006 21.4336L31.9705 25.2801C32.1555 25.6412 32.5047 25.8973 32.9045 25.9654L37.2574 26.7062L34.1533 29.6956C33.8481 29.9895 33.7062 30.4148 33.7737 30.8333L34.4856 35.237L30.6126 33.1565C30.2296 32.9509 29.772 32.9505 29.3888 33.1565L25.5156 35.237L26.2276 30.8329C26.2951 30.4147 26.1532 29.9894 25.8481 29.6954L22.7439 26.7062Z" fill="white"/>
<path d="M59.1211 20.9316H50.8997V12.6479C50.8997 9.18676 48.0839 6.37109 44.6229 6.37109H15.3772C11.9161 6.37109 9.10043 9.18687 9.10043 12.6479V20.9316H0.878906C0.393516 20.9316 0 21.3252 0 21.8105V22.5209C0 24.5657 1.61988 26.2393 3.64371 26.3259C3.72797 28.2951 5.31469 29.8817 7.28379 29.966C7.33957 31.2702 8.05441 32.4065 9.10289 33.0498C9.19113 38.7586 11.6455 44.2339 15.8675 48.1153C16.2248 48.4437 16.7808 48.4204 17.1094 48.063C17.4379 47.7057 17.4145 47.1498 17.0571 46.8212C13.3331 43.3975 11.1103 38.621 10.8783 33.6038C10.948 33.6077 11.0182 33.6097 11.0889 33.6097H12.7627C13.2218 42.7198 20.7779 49.9903 30 49.9903C39.2221 49.9903 46.7782 42.7198 47.2373 33.6097H48.9111C48.9819 33.6097 49.0523 33.6077 49.1222 33.6038C48.6642 43.7553 40.2622 51.8729 30 51.8729C26.5528 51.8729 23.1714 50.9422 20.2211 49.1814C19.8041 48.9325 19.2647 49.0691 19.0159 49.4858C18.7671 49.9026 18.9034 50.4421 19.3202 50.6909C22.5429 52.6142 26.2359 53.6307 30.0001 53.6307C41.4177 53.6307 50.7261 44.4276 50.8972 33.05C51.9456 32.4066 52.6604 31.2704 52.7162 29.9662C54.6854 29.882 56.272 28.2952 56.3563 26.3261C58.3801 26.2395 60 24.566 60 22.5212V21.8108C60 21.3252 59.6065 20.9316 59.1211 20.9316ZM10.8581 12.648C10.8581 10.1561 12.8854 8.12902 15.3771 8.12902H44.6227C47.1145 8.12902 49.1416 10.1562 49.1416 12.648V20.9318H47.2594V12.648C47.2594 11.1941 46.0766 10.0113 44.6227 10.0113H20.5645C20.0791 10.0113 19.6856 10.4048 19.6856 10.8902C19.6856 11.3756 20.0791 11.7691 20.5645 11.7691H44.6228C45.1075 11.7691 45.5017 12.1633 45.5017 12.648V20.9318H40.8983C38.4116 17.6187 34.4518 15.4715 30 15.4715C25.5482 15.4715 21.5883 17.6186 19.1017 20.9318H14.4983V12.648C14.4983 12.1633 14.8925 11.7691 15.3772 11.7691H16.4631C16.9485 11.7691 17.342 11.3756 17.342 10.8902C17.342 10.4048 16.9485 10.0113 16.4631 10.0113H15.3772C13.9233 10.0113 12.7405 11.1941 12.7405 12.648V20.9318H10.8581V12.648ZM18.1384 29.0908C18.1384 22.5504 23.4595 17.2292 30 17.2292C36.5405 17.2292 41.8616 22.5504 41.8616 29.0908C41.8616 35.6313 36.5405 40.9524 30 40.9524C23.4595 40.9524 18.1384 35.6313 18.1384 29.0908ZM1.76473 22.6895H17.981C17.6591 23.2914 17.381 23.9204 17.1512 24.5717H3.80859C2.73445 24.5718 1.85062 23.7418 1.76473 22.6895ZM5.4048 26.3296H16.662C16.5352 26.9431 16.4496 27.5716 16.4087 28.2119H7.44879C6.37465 28.2119 5.49082 27.3819 5.4048 26.3296ZM9.045 29.9697H16.4087C16.4497 30.61 16.5352 31.2385 16.662 31.852H11.0889C10.0148 31.8521 9.1309 31.0221 9.045 29.9697ZM30 48.2327C21.7473 48.2327 14.9802 41.7502 14.5229 33.6099H17.1512C19.0191 38.9053 24.0736 42.7102 30 42.7102C35.9264 42.7102 40.9809 38.9053 42.8488 33.6099H45.4771C45.0198 41.7502 38.2527 48.2327 30 48.2327ZM43.338 31.8521C43.4648 31.2386 43.5504 30.6102 43.5913 29.9698H50.955C50.8691 31.0222 49.9852 31.8521 48.9111 31.8521H43.338ZM56.1914 24.5718H53.3046C52.8192 24.5718 52.4257 24.9653 52.4257 25.4507C52.4257 25.9361 52.8192 26.3296 53.3046 26.3296H54.5952C54.5093 27.382 53.6254 28.2119 52.5513 28.2119H43.5914C43.5504 27.5716 43.465 26.9431 43.3382 26.3296H49.2032C49.6886 26.3296 50.0821 25.9361 50.0821 25.4507C50.0821 24.9653 49.6886 24.5718 49.2032 24.5718H42.8489C42.6191 23.9204 42.3411 23.2916 42.0191 22.6896H58.2354C58.1494 23.7418 57.2655 24.5718 56.1914 24.5718Z" fill="white"/>
</svg>
