<svg width="60" height="60" viewBox="0 0 60 60" fill="none" xmlns="http://www.w3.org/2000/svg">
<g clip-path="url(#clip0_362_2146)">
<path d="M59.627 5.9118L58.4654 4.38257C58.1688 3.99226 57.7382 3.74072 57.2525 3.6744C56.7661 3.60797 56.2844 3.73481 55.894 4.03138L43.8214 13.2019L42.1062 10.944L43.7323 9.70879L44.1485 9.80856C44.9147 9.99236 45.7147 9.82428 46.3425 9.34744L48.962 7.35769C49.7389 6.76725 49.8909 5.65482 49.3007 4.87774L46.4645 1.14398C45.8744 0.366899 44.7617 0.214769 43.9844 0.805086L41.3652 2.79484C40.7374 3.27156 40.3612 3.99687 40.3326 4.78471L40.3171 5.21238L36.7603 7.91408C36.3703 8.21018 36.2944 8.76634 36.5904 9.1563C36.8867 9.54626 37.4429 9.62215 37.8326 9.32604L41.724 6.3702C41.9358 6.20944 42.0642 5.96203 42.0737 5.69631L42.1045 4.84889C42.1137 4.59463 42.2351 4.36059 42.4377 4.20668L45.0525 2.21634L47.8894 5.94572L45.27 7.93535C45.0674 8.08914 44.8094 8.1434 44.562 8.08418L43.7372 7.88654C43.479 7.82448 43.206 7.88169 42.9943 8.04268L26.9949 20.1962L25.7244 18.5237L34.7962 11.6327C35.186 11.3366 35.2619 10.7804 34.9659 10.3905C34.6699 10.0005 34.1137 9.92452 33.7236 10.2207L21.0189 19.8715C21.0189 19.8715 21.0188 19.8715 21.0188 19.8716C21.0188 19.8717 21.0188 19.8716 21.0186 19.8717L18.395 21.8648L17.0143 21.6391C16.7742 21.5998 16.5287 21.6611 16.335 21.8082L14.0936 23.5108C13.7423 23.7776 13.5159 24.1652 13.4562 24.6022C13.3965 25.0392 13.5105 25.4733 13.7774 25.8246L16.7571 29.7472C17.0816 30.1744 17.575 30.3991 18.074 30.3991C18.4221 30.3991 18.773 30.2897 19.071 30.0634L21.3124 28.3608C21.506 28.2137 21.6307 27.9935 21.6573 27.7518L21.8103 26.3612L28.0316 21.6354L29.7467 23.8932L23.9842 28.2706C22.358 29.5058 21.2073 31.2815 20.7439 33.2704L20.3569 34.9322C20.332 35.0395 20.1891 35.1639 20.0692 35.1936C18.2225 34.8569 16.3151 35.3111 14.8173 36.449L0.820523 47.081C0.0356386 47.6772 -0.222995 48.7542 0.205736 49.6418L1.08081 51.4536C2.90567 55.2322 6.23953 58.1484 10.2272 59.4548C10.4375 59.5237 10.6532 59.5567 10.8668 59.5567C11.5901 59.5567 12.2885 59.178 12.668 58.5318L18.4025 48.7698C18.6505 48.3475 18.5093 47.8044 18.0871 47.5563C17.6653 47.3084 17.1218 47.4494 16.8736 47.8716L11.1391 57.6336C11.0667 57.757 10.9151 57.8144 10.7791 57.7697C7.24676 56.6126 4.29375 54.0293 2.67729 50.6823L1.80222 48.8705C1.73898 48.7395 1.77716 48.5805 1.89288 48.4926L15.8897 37.8604C17.016 37.0049 18.457 36.6749 19.8434 36.9553C19.9012 36.967 19.9601 36.9729 20.0191 36.9729C20.9627 36.9729 21.8696 36.253 22.0837 35.334L22.4707 33.6722C22.8403 32.085 23.7586 30.6678 25.0564 29.6821L40.4041 18.0237L42.5181 20.8067L25.7596 33.5372C25.4791 33.7502 25.3513 34.1091 25.4342 34.4515L26.399 38.442C26.5224 38.9528 26.3035 39.4791 25.8539 39.7514L24.6007 40.5108C24.257 40.7189 23.8344 40.7417 23.4705 40.572L22.9243 40.317C22.2028 39.9804 21.3545 40.2441 20.9511 40.9306L18.851 44.5057C18.603 44.9279 18.7442 45.4711 19.1664 45.7192C19.5885 45.9674 20.1317 45.8261 20.3799 45.4039L22.3706 42.0152L22.7207 42.1786C23.6223 42.5993 24.6687 42.5428 25.5198 42.0272L26.773 41.2679C27.886 40.5935 28.4283 39.2904 28.1225 38.0254L27.7958 36.674C28.398 37.0009 29.0711 37.1699 29.7489 37.1699C30.6077 37.1699 31.4732 36.9001 32.2083 36.3418C33.9969 34.9831 34.3467 32.4226 32.9881 30.6337L32.8144 30.405L43.6625 22.1644C44.0206 21.8926 44.2512 21.4974 44.3121 21.052C44.3623 20.6845 44.2901 20.3199 44.1112 20.0021L49.9109 15.5967C50.3008 15.3006 50.3767 14.7445 50.0807 14.3545C49.7845 13.9647 49.2284 13.8885 48.8385 14.1848L43.0531 18.5794L41.8164 16.9514L56.9666 5.44311C56.9715 5.43921 56.9867 5.42692 57.0124 5.43106C57.038 5.43448 57.0495 5.44997 57.0534 5.45505L58.215 6.98427C58.2358 7.01146 58.2304 7.05059 58.2031 7.07127L51.875 11.8783C51.4851 12.1744 51.4092 12.7306 51.7052 13.1206C52.0015 13.5105 52.5575 13.5864 52.9476 13.2903L59.2757 8.48324C60.0814 7.87105 60.239 6.71748 59.627 5.9118ZM31.576 31.7062C32.3433 32.7164 32.1458 34.1624 31.1357 34.9298C30.1255 35.6972 28.6793 35.4996 27.912 34.4895L27.7384 34.2609L29.0481 33.2659L29.5122 33.8767C29.6866 34.1063 29.9511 34.2271 30.2188 34.2271C30.4057 34.2271 30.5941 34.1682 30.7544 34.0465C31.1442 33.7502 31.2201 33.1942 30.9241 32.8042L30.4601 32.1935L31.4024 31.4776L31.576 31.7062ZM25.583 21.2687L24.0676 22.4198L22.7972 20.7473L24.3125 19.5962L25.583 21.2687ZM21.3853 21.8198L22.6558 23.4922L21.1405 24.6433L19.87 22.9708L21.3853 21.8198ZM18.0954 28.5777L15.2631 24.849L17.1043 23.4504L18.1358 23.6191L20.0509 26.1402L19.9366 27.1792L18.0954 28.5777ZM29.4436 20.5626L40.6943 12.0164L42.4094 14.2742L39.4045 16.5568C39.4042 16.557 39.4038 16.5573 39.4034 16.5576L31.1585 22.8205L29.4436 20.5626Z" fill="white"/>
</g>
<defs>
<clipPath id="clip0_362_2146">
<rect width="60" height="60" fill="white"/>
</clipPath>
</defs>
</svg>
