<svg width="60" height="60" viewBox="0 0 60 60" fill="none" xmlns="http://www.w3.org/2000/svg">
<g clip-path="url(#clip0_362_2120)">
<path d="M59.1211 29.1211H55.0902C54.9152 23.9798 53.2058 19.1068 50.1179 14.978C49.8273 14.5893 49.2764 14.5097 48.8877 14.8004C48.4991 15.0912 48.4195 15.642 48.7103 16.0307C51.5691 19.8533 53.1574 24.3623 53.3317 29.1211H50.2823C49.8328 18.6241 41.3759 10.1672 30.8789 9.71777V6.66961C36.7857 6.88676 42.3077 9.28816 46.5097 13.4903C46.853 13.8335 47.4094 13.8335 47.7527 13.4903C48.096 13.147 48.096 12.5905 47.7527 12.2474C43.2185 7.71316 37.2553 5.12871 30.8789 4.91074V0.878906C30.8789 0.393516 30.4855 0 30 0C29.5145 0 29.1211 0.393516 29.1211 0.878906V4.91062C22.6689 5.13059 16.6539 7.76684 12.1021 12.3938C11.7618 12.7398 11.7662 13.2962 12.1123 13.6366C12.2835 13.805 12.506 13.8889 12.7287 13.8889C12.9559 13.8889 13.1832 13.8013 13.3553 13.6264C17.5739 9.3382 23.1441 6.88863 29.1212 6.66949V9.71766C18.6241 10.1672 10.1672 18.6241 9.71766 29.1211H6.6682C6.84012 24.4364 8.3857 19.9856 11.1649 16.1991C11.4521 15.8078 11.3678 15.2577 10.9765 14.9705C10.5853 14.6832 10.0354 14.7676 9.74801 15.1589C6.74566 19.2492 5.08242 24.0596 4.90969 29.1211H0.878906C0.393398 29.1211 0 29.5146 0 30C0 30.4854 0.393398 30.8789 0.878906 30.8789H4.91062C5.12859 37.2553 7.71316 43.2186 12.2473 47.7527C16.7815 52.287 22.7447 54.8714 29.1211 55.0894V59.1211C29.1211 59.6065 29.5145 60 30 60C30.4855 60 30.8789 59.6065 30.8789 59.1211V55.0894C37.2554 54.8714 43.2186 52.287 47.7527 47.7527C52.2868 43.2186 54.8713 37.2553 55.0893 30.8789H59.1211C59.6066 30.8789 60 30.4854 60 30C60 29.5146 59.6066 29.1211 59.1211 29.1211ZM30 11.4553C40.2255 11.4553 48.5447 19.7745 48.5447 30C48.5447 40.2255 40.2255 48.5447 30 48.5447C19.7745 48.5447 11.4553 40.2255 11.4553 30C11.4553 19.7745 19.7745 11.4553 30 11.4553ZM6.66984 30.8789H9.71766C10.1672 41.3759 18.624 49.8328 29.1211 50.2822V53.3302C16.9444 52.877 7.12301 43.0556 6.66984 30.8789ZM30.8789 53.3302V50.2822C41.3759 49.8327 49.8328 41.3759 50.2823 30.8789H53.3302C52.877 43.0556 43.0556 52.877 30.8789 53.3302Z" fill="white"/>
<path d="M29.1235 38.324V43.618C29.1235 44.1034 29.5169 44.497 30.0024 44.497C30.4879 44.497 30.8813 44.1034 30.8813 43.618V38.324C34.7949 37.9136 37.9136 34.7949 38.324 30.8813H43.618C44.1036 30.8813 44.497 30.4878 44.497 30.0024C44.497 29.517 44.1036 29.1235 43.618 29.1235H38.324C37.9136 25.2099 34.7949 22.0912 30.8813 21.6808V16.3867C30.8813 15.9013 30.4879 15.5078 30.0024 15.5078C29.5169 15.5078 29.1235 15.9013 29.1235 16.3867V21.6808C25.2099 22.0912 22.0912 25.2099 21.6808 29.1235H16.3867C15.9012 29.1235 15.5078 29.517 15.5078 30.0024C15.5078 30.4878 15.9012 30.8813 16.3867 30.8813H21.6808C22.0912 34.7949 25.2099 37.9136 29.1235 38.324ZM29.1235 23.4523V26.9259C29.1235 27.4112 29.5169 27.8048 30.0024 27.8048C30.4879 27.8048 30.8813 27.4112 30.8813 26.9259V23.4523C33.8242 23.8452 36.1594 26.1805 36.5525 29.1235H33.0788C32.5933 29.1235 32.1999 29.517 32.1999 30.0024C32.1999 30.4878 32.5933 30.8813 33.0788 30.8813H36.5525C36.1595 33.8241 33.8242 36.1594 30.8813 36.5525V33.0789C30.8813 32.5935 30.4879 32.2 30.0024 32.2C29.5169 32.2 29.1235 32.5935 29.1235 33.0789V36.5525C26.1805 36.1595 23.8454 33.8242 23.4523 30.8813H26.926C27.4115 30.8813 27.8049 30.4878 27.8049 30.0024C27.8049 29.517 27.4115 29.1235 26.926 29.1235H23.4523C23.8454 26.1807 26.1805 23.8454 29.1235 23.4523Z" fill="white"/>
</g>
<defs>
<clipPath id="clip0_362_2120">
<rect width="60" height="60" fill="white"/>
</clipPath>
</defs>
</svg>
